<svg xmlns="http://www.w3.org/2000/svg" viewBox="0 0 32 32" width="32" height="32">
  <defs>
    <linearGradient id="bg32" x1="0%" y1="0%" x2="100%" y2="100%">
      <stop offset="0%" style="stop-color:#4F46E5;stop-opacity:1" />
      <stop offset="100%" style="stop-color:#7C3AED;stop-opacity:1" />
    </linearGradient>
  </defs>
  
  <!-- Background -->
  <circle cx="16" cy="16" r="15" fill="url(#bg32)" />
  
  <!-- AI Circuit Pattern -->
  <circle cx="8" cy="8" r="1.5" fill="#FBBF24" opacity="0.8" />
  <circle cx="24" cy="8" r="1.2" fill="#FBBF24" opacity="0.6" />
  <circle cx="8" cy="24" r="1.2" fill="#FBBF24" opacity="0.6" />
  <circle cx="24" cy="24" r="1.5" fill="#FBBF24" opacity="0.8" />
  
  <!-- Connecting lines for AI pattern -->
  <path d="M8 8 L24 8 M24 8 L24 24 M24 24 L8 24 M8 24 L8 8" 
        stroke="#FBBF24" stroke-width="0.5" opacity="0.3" fill="none" />
  
  <!-- Airplane -->
  <path d="M16 6 L20 14 L26 16 L20 18 L16 26 L14 24 L14 18 L6 16 L14 14 L14 8 Z" 
        fill="white" stroke="#1F2937" stroke-width="0.5" />
  
  <!-- Flight path dots -->
  <circle cx="12" cy="12" r="0.8" fill="#60A5FA" />
  <circle cx="20" cy="20" r="0.8" fill="#60A5FA" />
</svg>
