<svg xmlns="http://www.w3.org/2000/svg" viewBox="0 0 32 32" width="32" height="32">
  <!-- Background circle with gradient -->
  <defs>
    <linearGradient id="bg" x1="0%" y1="0%" x2="100%" y2="100%">
      <stop offset="0%" style="stop-color:#4F46E5;stop-opacity:1" />
      <stop offset="100%" style="stop-color:#7C3AED;stop-opacity:1" />
    </linearGradient>
    <linearGradient id="plane" x1="0%" y1="0%" x2="100%" y2="100%">
      <stop offset="0%" style="stop-color:#FFFFFF;stop-opacity:1" />
      <stop offset="100%" style="stop-color:#E5E7EB;stop-opacity:1" />
    </linearGradient>
  </defs>
  
  <!-- Background -->
  <circle cx="16" cy="16" r="16" fill="url(#bg)" />
  
  <!-- AI Brain/Circuit pattern -->
  <circle cx="10" cy="10" r="1.5" fill="#FBBF24" opacity="0.8" />
  <circle cx="22" cy="8" r="1" fill="#FBBF24" opacity="0.6" />
  <circle cx="24" cy="22" r="1.5" fill="#FBBF24" opacity="0.8" />
  <circle cx="8" cy="24" r="1" fill="#FBBF24" opacity="0.6" />
  
  <!-- Connecting lines for AI pattern -->
  <path d="M10 10 L22 8 M22 8 L24 22 M24 22 L8 24 M8 24 L10 10" 
        stroke="#FBBF24" stroke-width="0.5" opacity="0.4" fill="none" />
  
  <!-- Airplane icon -->
  <path d="M16 6 L20 14 L26 16 L20 18 L16 26 L14 24 L14 18 L6 16 L14 14 L14 8 Z" 
        fill="url(#plane)" stroke="#1F2937" stroke-width="0.5" />
  
  <!-- Flight path dots -->
  <circle cx="12" cy="12" r="0.5" fill="#60A5FA" />
  <circle cx="20" cy="20" r="0.5" fill="#60A5FA" />
  <circle cx="14" cy="6" r="0.5" fill="#60A5FA" />
</svg>
