<svg xmlns="http://www.w3.org/2000/svg" viewBox="0 0 32 32" width="32" height="32">
  <!-- Background circle with gradient -->
  <defs>
    <linearGradient id="bg" x1="0%" y1="0%" x2="100%" y2="100%">
      <stop offset="0%" style="stop-color:#0EA5E9;stop-opacity:1" />
      <stop offset="50%" style="stop-color:#3B82F6;stop-opacity:1" />
      <stop offset="100%" style="stop-color:#6366F1;stop-opacity:1" />
    </linearGradient>
    <linearGradient id="brain" x1="0%" y1="0%" x2="100%" y2="100%">
      <stop offset="0%" style="stop-color:#FBBF24;stop-opacity:1" />
      <stop offset="100%" style="stop-color:#F59E0B;stop-opacity:1" />
    </linearGradient>
    <linearGradient id="pin" x1="0%" y1="0%" x2="100%" y2="100%">
      <stop offset="0%" style="stop-color:#FFFFFF;stop-opacity:1" />
      <stop offset="100%" style="stop-color:#F8FAFC;stop-opacity:1" />
    </linearGradient>
  </defs>
  
  <!-- Background -->
  <circle cx="16" cy="16" r="16" fill="url(#bg)" />
  
  <!-- AI Brain outline -->
  <path d="M8 12 Q8 8 12 8 Q16 8 20 8 Q24 8 24 12 Q24 16 22 18 Q20 20 16 20 Q12 20 10 18 Q8 16 8 12 Z" 
        fill="none" stroke="url(#brain)" stroke-width="1.5" opacity="0.8" />
  
  <!-- Neural network nodes -->
  <circle cx="11" cy="11" r="1" fill="#FBBF24" />
  <circle cx="16" cy="9" r="1" fill="#FBBF24" />
  <circle cx="21" cy="11" r="1" fill="#FBBF24" />
  <circle cx="13" cy="15" r="1" fill="#FBBF24" />
  <circle cx="19" cy="15" r="1" fill="#FBBF24" />
  
  <!-- Neural connections -->
  <path d="M11 11 L16 9 M16 9 L21 11 M11 11 L13 15 M21 11 L19 15 M13 15 L19 15" 
        stroke="#FBBF24" stroke-width="0.8" opacity="0.6" fill="none" />
  
  <!-- Location pin for destination -->
  <path d="M16 22 Q14 20 14 18 Q14 16 16 16 Q18 16 18 18 Q18 20 16 22 Z" 
        fill="url(#pin)" stroke="#1E293B" stroke-width="0.5" />
  <circle cx="16" cy="18" r="1.5" fill="#EF4444" />
  
  <!-- Travel route line -->
  <path d="M8 26 Q12 24 16 22 Q20 24 24 26" 
        stroke="#FFFFFF" stroke-width="1.5" opacity="0.7" fill="none" stroke-dasharray="2,1" />
  
  <!-- Small decorative stars -->
  <circle cx="6" cy="6" r="0.8" fill="#FBBF24" opacity="0.9" />
  <circle cx="26" cy="6" r="0.8" fill="#FBBF24" opacity="0.9" />
  <circle cx="6" cy="26" r="0.8" fill="#FBBF24" opacity="0.9" />
</svg>
