<svg xmlns="http://www.w3.org/2000/svg" viewBox="0 0 16 16" width="16" height="16">
  <defs>
    <linearGradient id="bg16" x1="0%" y1="0%" x2="100%" y2="100%">
      <stop offset="0%" style="stop-color:#0EA5E9;stop-opacity:1" />
      <stop offset="50%" style="stop-color:#3B82F6;stop-opacity:1" />
      <stop offset="100%" style="stop-color:#6366F1;stop-opacity:1" />
    </linearGradient>
  </defs>
  
  <!-- Background -->
  <circle cx="8" cy="8" r="8" fill="url(#bg16)" />
  
  <!-- Simplified AI Brain -->
  <path d="M4 6 Q4 4 6 4 Q8 4 10 4 Q12 4 12 6 Q12 8 11 9 Q10 10 8 10 Q6 10 5 9 Q4 8 4 6 Z" 
        fill="none" stroke="#FBBF24" stroke-width="0.8" opacity="0.8" />
  
  <!-- Neural nodes (simplified) -->
  <circle cx="6" cy="6" r="0.5" fill="#FBBF24" />
  <circle cx="8" cy="5" r="0.5" fill="#FBBF24" />
  <circle cx="10" cy="6" r="0.5" fill="#FBBF24" />
  <circle cx="7" cy="8" r="0.5" fill="#FBBF24" />
  <circle cx="9" cy="8" r="0.5" fill="#FBBF24" />
  
  <!-- Location pin -->
  <path d="M8 11 Q7 10 7 9 Q7 8 8 8 Q9 8 9 9 Q9 10 8 11 Z" 
        fill="#FFFFFF" stroke="#1E293B" stroke-width="0.3" />
  <circle cx="8" cy="9" r="0.8" fill="#EF4444" />
  
  <!-- Travel route -->
  <path d="M2 13 Q4 12 8 11 Q12 12 14 13" 
        stroke="#FFFFFF" stroke-width="0.8" opacity="0.7" fill="none" stroke-dasharray="1,0.5" />
</svg>
